<?xml version="1.0" encoding="UTF-8" standalone="no"?>
<!-- Created with Inkscape (http://www.inkscape.org/) -->

<svg
   version="1.1"
   id="svg1"
   width="96"
   height="96"
   viewBox="0 0 96 96"
   sodipodi:docname="logo_light.svg"
   xml:space="preserve"
   inkscape:export-filename="logo.svg"
   inkscape:export-xdpi="96"
   inkscape:export-ydpi="96"
   xmlns:inkscape="http://www.inkscape.org/namespaces/inkscape"
   xmlns:sodipodi="http://sodipodi.sourceforge.net/DTD/sodipodi-0.dtd"
   xmlns="http://www.w3.org/2000/svg"
   xmlns:svg="http://www.w3.org/2000/svg"><defs
     id="defs1" /><sodipodi:namedview
     id="namedview1"
     pagecolor="#ffffff"
     bordercolor="#000000"
     borderopacity="0.25"
     inkscape:showpageshadow="2"
     inkscape:pageopacity="0.0"
     inkscape:pagecheckerboard="0"
     inkscape:deskcolor="#d1d1d1" /><g
     inkscape:groupmode="layer"
     inkscape:label="Image"
     id="g1"><g
       id="g18"
       transform="matrix(0.37646589,0,0,0.37646589,-622.98077,-528.56466)"><path
         style="fill:#000000;fill-opacity:1"
         d="m 1662.3492,1601.5509 c -2.2234,-0.9674 -3.3505,-2.2804 -3.8294,-4.4609 -1.5849,-7.216 -1.1384,-7.7809 34.4611,-43.59 21.5985,-21.7257 34.1462,-35.083 34.7571,-37 0.6119,-1.9201 0.606,-4.0799 -0.016,-6 -0.6157,-1.8997 -13.3695,-15.4696 -34.7748,-37 -36.1588,-36.3701 -36.6187,-36.964 -34.2192,-44.1963 1.5735,-4.7424 7.8212,-6.6273 13.2873,-4.0086 4.3406,2.0795 82.612,81.8772 83.3666,84.9924 1.6955,6.9988 0.8407,8.0345 -41.6113,50.4161 -22.1486,22.112 -41.5371,40.6745 -43.0854,41.25 -3.5618,1.324 -4.4676,1.2802 -8.3357,-0.4027 z"
         id="path17" /><path
         style="fill:#22c449;fill-opacity:1"
         d="m 1769.3853,1637.7921 c -4.0444,-1.3034 -5.8726,-6.4335 -4.2376,-11.8908 0.8974,-2.9952 1.774,-3.8609 4.8401,-4.7795 5.3254,-1.5955 125.7851,-1.5697 131.1181,0.028 4.5193,1.354 6.4341,5.4548 5.32,11.3936 -1.24,6.6097 0.3252,6.4689 -70.6438,6.3544 -39.3179,-0.063 -64.4616,-0.4822 -66.3968,-1.1058 z"
         id="path1" /></g></g></svg>
