<?xml version="1.0" encoding="UTF-8" standalone="no"?>
<!-- Created with Inkscape (http://www.inkscape.org/) -->

<svg
   version="1.1"
   id="svg1"
   width="2026.1061"
   height="242.31909"
   viewBox="0 0 2026.1061 242.31909"
   sodipodi:docname="full logo.svg"
   inkscape:version="1.3 (0e150ed6c4, 2023-07-21)"
   xmlns:inkscape="http://www.inkscape.org/namespaces/inkscape"
   xmlns:sodipodi="http://sodipodi.sourceforge.net/DTD/sodipodi-0.dtd"
   xmlns="http://www.w3.org/2000/svg"
   xmlns:svg="http://www.w3.org/2000/svg">
  <defs
     id="defs1" />
  <sodipodi:namedview
     id="namedview1"
     pagecolor="#000000"
     bordercolor="#000000"
     borderopacity="0.25"
     inkscape:showpageshadow="2"
     inkscape:pageopacity="0.0"
     inkscape:pagecheckerboard="0"
     inkscape:deskcolor="#d1d1d1"
     inkscape:zoom="0.13825307"
     inkscape:cx="1782.9623"
     inkscape:cy="1377.9079"
     inkscape:window-width="1440"
     inkscape:window-height="820"
     inkscape:window-x="0"
     inkscape:window-y="0"
     inkscape:window-maximized="1"
     inkscape:current-layer="g1" />
  <g
     inkscape:groupmode="layer"
     inkscape:label="Image"
     id="g1"
     transform="translate(-1657.8939,-1396.6099)">
    <g
       id="g22"
       inkscape:export-filename="studiobool full logo.svg"
       inkscape:export-xdpi="384"
       inkscape:export-ydpi="384">
      <g
         id="g21">
        <g
           id="g20">
          <path
             id="path12"
             style="fill:#24ff59;fill-opacity:1"
             d="m 3506.6543,1467.1113 c -11.1544,-0.1206 -19.112,1.331 -28.9629,5.0957 -22.8789,8.7435 -39.6154,28.0447 -46.3926,53.5039 -2.2732,8.5398 -2.6121,11.8301 -2.6601,25.7891 -0.061,17.6065 1.7455,27.7982 7.0781,39.9258 9.9293,22.5811 29.2917,38.5167 53.5391,44.0644 4.3063,0.9852 10.5898,1.3252 20.2441,1.0938 16.0027,-0.3835 22.625,-2.0193 36,-8.8965 9.7323,-5.0042 23.0359,-17.8066 28.7734,-27.6875 12.5423,-21.6001 15.2139,-53.8714 6.6641,-80.5 -4.0128,-12.4978 -9.0257,-20.5825 -18.9375,-30.5371 -14.0736,-14.1343 -29.4264,-20.7516 -50.3535,-21.7051 -1.7388,-0.079 -3.3987,-0.1292 -4.9922,-0.1465 z m 0.543,24.8907 c 3.7074,0.044 7.5034,0.5512 11.3418,1.5507 17.1374,4.4626 30.8035,20.0772 34.9609,39.9473 1.8859,9.0134 1.88,28.04 -0.012,36.9707 -2.1499,10.1491 -7.484,20.6256 -13.961,27.416 -6.3163,6.6221 -12.604,10.3769 -21.0625,12.5801 -24.5358,6.3908 -47.3269,-7.3571 -56.1816,-33.8887 -2.4928,-7.4692 -2.6973,-9.3223 -2.6973,-24.5781 0,-15.2558 0.2045,-17.1089 2.6973,-24.5781 7.4662,-22.3712 24.8938,-35.6567 44.9141,-35.4199 z" />
          <path
             id="path10"
             style="fill:#24ff59;fill-opacity:1"
             d="m 3312.6543,1467.1113 c -11.1544,-0.1206 -19.112,1.331 -28.9629,5.0957 -22.8789,8.7435 -39.6154,28.0447 -46.3926,53.5039 -2.2732,8.5398 -2.6121,11.8301 -2.6601,25.7891 -0.061,17.6065 1.7455,27.7982 7.0781,39.9258 9.9293,22.5811 29.2917,38.5167 53.5391,44.0644 4.3063,0.9852 10.5898,1.3252 20.2441,1.0938 16.0027,-0.3835 22.625,-2.0193 36,-8.8965 9.7323,-5.0042 23.0359,-17.8066 28.7734,-27.6875 12.5423,-21.6001 15.2139,-53.8714 6.6641,-80.5 -4.0128,-12.4978 -9.0257,-20.5825 -18.9375,-30.5371 -14.0736,-14.1343 -29.4264,-20.7516 -50.3535,-21.7051 -1.7388,-0.079 -3.3987,-0.1292 -4.9922,-0.1465 z m 0.543,24.8907 c 3.7074,0.044 7.5034,0.5512 11.3418,1.5507 17.1374,4.4626 30.8035,20.0772 34.9609,39.9473 1.8859,9.0134 1.88,28.04 -0.012,36.9707 -2.1499,10.1491 -7.484,20.6256 -13.961,27.416 -6.3163,6.6221 -12.604,10.3769 -21.0625,12.5801 -24.5358,6.3908 -47.3269,-7.3571 -56.1816,-33.8887 -2.4928,-7.4692 -2.6973,-9.3223 -2.6973,-24.5781 0,-15.2558 0.2045,-17.1089 2.6973,-24.5781 7.4662,-22.3712 24.8938,-35.6567 44.9141,-35.4199 z" />
          <path
             id="path8"
             style="fill:#24ff59;fill-opacity:1"
             d="m 3046,1413 v 110 110 h 10.4688 10.4667 l 2.5333,-8.3008 c 1.3925,-4.5659 2.5312,-8.5872 2.5312,-8.9355 0,-0.3483 0.4549,-1.8276 1.0098,-3.2871 l 1.0078,-2.6543 3.8457,5.1191 c 7.4535,9.9197 17.7641,16.7448 30.2246,20.0078 9.2934,2.4336 25.9485,2.695 34.4512,0.541 30.3579,-7.691 50.9266,-35.0153 54.4453,-72.3281 3.633,-38.5253 -11.2855,-73.0431 -38.0449,-88.0254 -9.8194,-5.4978 -16.4044,-7.2821 -29.0489,-7.8652 -23.2908,-1.0741 -40.7163,6.3715 -53.1972,22.7285 l -2.6719,3.5 -0.01,-40.25 L 3074,1413 h -14 z m 73.4004,78.207 c 21.1337,-0.3588 39.0153,15.162 44.1016,39.293 3.564,16.9099 2.5365,38.3025 -2.4825,51.7168 -4.9601,13.2571 -14.5041,23.5763 -25.6699,27.7539 -3.1585,1.1818 -9.0084,2.3084 -13.2519,2.5527 -18.3358,1.0559 -32.6904,-7.6601 -41.1094,-24.9609 -5.02,-10.3159 -6.9883,-20.3301 -6.9883,-35.5625 0,-15.2324 1.9683,-25.2466 6.9883,-35.5625 6.8483,-14.0729 17.2208,-22.1084 31.7597,-24.6016 2.2454,-0.385 4.4661,-0.5918 6.6524,-0.6289 z" />
          <path
             style="fill:#24ff59;fill-opacity:1"
             d="m 3652.7345,1631.9119 c -9.1643,-2.159 -13.9904,-6.3208 -17.5055,-15.0958 -1.5914,-3.9727 -1.7511,-12.2531 -2.0068,-104.0661 l -0.2778,-99.75 h 14.003 14.0029 l 0.2749,93.25 c 0.2534,85.9842 0.4088,93.4948 1.9944,96.3916 2.1266,3.885 6.0943,5.3584 14.4296,5.3584 H 3684 v 12.5 12.5 l -13.75,-0.1005 c -7.5625,-0.055 -15.4445,-0.4996 -17.5155,-0.9876 z"
             id="path16" />
        </g>
        <g
           id="g19">
          <path
             id="path6"
             style="fill:#217eed;fill-opacity:1"
             d="m 2919.6543,1467.1113 c -11.1544,-0.1206 -19.112,1.331 -28.9629,5.0957 -22.8789,8.7435 -39.6154,28.0447 -46.3926,53.5039 -2.2732,8.5398 -2.6121,11.8301 -2.6601,25.7891 -0.061,17.6065 1.7455,27.7982 7.0781,39.9258 9.9293,22.5811 29.2917,38.5167 53.5391,44.0644 4.3063,0.9852 10.5898,1.3252 20.2441,1.0938 16.0027,-0.3835 22.625,-2.0193 36,-8.8965 9.7323,-5.0042 23.0359,-17.8066 28.7734,-27.6875 12.5423,-21.6001 15.2139,-53.8714 6.6641,-80.5 -4.0128,-12.4978 -9.0257,-20.5825 -18.9375,-30.5371 -14.0736,-14.1343 -29.4264,-20.7516 -50.3535,-21.7051 -1.7388,-0.079 -3.3987,-0.1292 -4.9922,-0.1465 z m 0.543,24.8907 c 3.7074,0.044 7.5034,0.5512 11.3418,1.5507 17.1374,4.4626 30.8035,20.0772 34.9609,39.9473 1.8859,9.0134 1.88,28.04 -0.012,36.9707 -2.1499,10.1491 -7.484,20.6256 -13.961,27.416 -6.3163,6.6221 -12.604,10.3769 -21.0625,12.5801 -24.5358,6.3908 -47.3269,-7.3571 -56.1816,-33.8887 -2.4928,-7.4692 -2.6973,-9.3223 -2.6973,-24.5781 0,-15.2558 0.2045,-17.1089 2.6973,-24.5781 7.4662,-22.3712 24.8938,-35.6567 44.9141,-35.4199 z" />
          <path
             id="path4"
             style="fill:#217eed;fill-opacity:1"
             d="m 2664.0078,1413 -0.01,40.75 -0.012,40.75 -1.9629,-2.9785 c -3.1073,-4.7142 -10.8734,-12.216 -16.1523,-15.6035 -8.8598,-5.6853 -17.9529,-8.2052 -31.4043,-8.7012 -14.2939,-0.5271 -20.9713,0.8361 -33.0176,6.7383 -19.5525,9.5801 -33.6068,29.3654 -39.1113,55.0605 -2.513,11.7291 -2.49,35.3788 0.045,46.4844 7.3063,32.0097 27.3523,54.3829 54.1172,60.4004 h 0.01 c 6.524,1.4668 24.3808,1.2155 31.4102,-0.4414 13.1524,-3.1002 27.225,-12.4701 33.1679,-22.086 1.182,-1.9125 2.3572,-3.2699 2.6114,-3.0156 0.2542,0.2542 1.9189,5.3406 3.6992,11.3028 l 3.2363,10.8398 13.5156,0.2773 13.5157,0.2774 -1.7598,-10.8906 c -3.4177,-21.1628 -3.8965,-36.3517 -3.8965,-123.3633 V 1413 h -14 z m -45.4629,78.3418 c 15.6145,0.286 31.1276,8.9082 38.5449,25.2168 5.291,11.6334 6.3472,17.5059 6.3672,35.4414 0.02,17.8803 -1.5711,26.3723 -6.916,36.9199 -5.6363,11.1227 -17.6447,20.5238 -29.3398,22.9707 -13.2919,2.7809 -27.6419,-0.8893 -37.2344,-9.5254 -20.3716,-18.3403 -24.2387,-65.7355 -7.4961,-91.8652 8.4409,-13.1734 22.2967,-19.4105 36.0742,-19.1582 z" />
          <path
             style="fill:#217eed;fill-opacity:1"
             d="m 2768.5,1436.11 c -7.4446,-3.4359 -11.5,-10.1777 -11.5,-19.1177 0,-13.0324 12.2256,-22.7414 25.032,-19.879 7.9461,1.776 13.2014,6.6488 15.5134,14.384 5.096,17.0495 -12.7206,32.147 -29.0454,24.6127 z"
             id="path18" />
          <path
             style="fill:#217eed;fill-opacity:1"
             d="m 2763,1562.5328 v -70.4673 l -11.25,-0.2827 -11.25,-0.2828 -0.2828,-11.25 -0.2827,-11.25 H 2765.9672 2792 v 82 82 h -14.5 -14.5 z"
             id="path15" />
          <path
             style="fill:#217eed;fill-opacity:1"
             d="m 2272.8096,1631.6022 c -10.1423,-2.7306 -15.7964,-9.6234 -17.7448,-21.6324 -0.6422,-3.9584 -1.0526,-28.0994 -1.0572,-62.1916 l -0.01,-55.7218 -13.75,-0.2782 -13.75,-0.2782 -0.2828,-11.25 -0.2827,-11.25 H 2239.9672 2254 v -21 -21 h 14 14 v 21 21 h 16 16 v 11.5 11.5 h -16.0761 -16.076 l 0.326,53.75 c 0.2946,48.5616 0.4921,54.0533 2.0457,56.8916 2.3472,4.2881 6.1281,5.3584 18.9296,5.3584 H 2314 v 12.5 12.5 l -18.25,-0.068 c -11.3416,-0.042 -20.0255,-0.5455 -22.9404,-1.3303 z"
             id="path14" />
          <path
             style="fill:#217eed;fill-opacity:1"
             d="m 2396.5,1635.11 c -17.0509,-4.966 -27.2273,-16.0948 -32.7327,-35.796 -2.1159,-7.5721 -2.1943,-9.7101 -2.5315,-69.064 l -0.3481,-61.25 h 14.5111 14.511 l 0.3237,58.25 c 0.3584,64.4856 0.2425,63.2756 7.0258,73.3785 2.3675,3.5261 4.8383,5.6409 9.17,7.849 5.5404,2.8243 6.6554,3.0225 17,3.0225 9.898,0 11.6719,-0.2818 16.7458,-2.6604 11.3747,-5.3323 18.007,-13.9207 22.0202,-28.5151 2.0446,-7.435 2.1722,-10.4004 2.5631,-59.5745 l 0.4114,-51.75 H 2479.0849 2493 v 82 82 h -10.829 -10.829 l -2.8205,-10.25 c -1.5513,-5.6375 -3.0151,-10.6042 -3.2529,-11.037 -0.2378,-0.4329 -1.6769,0.9171 -3.198,3 -7.368,10.0888 -19.1629,17.9174 -31.3103,20.7814 -8.7028,2.0519 -26.5842,1.8513 -34.2603,-0.3844 z"
             id="path3" />
          <path
             style="fill:#217eed;fill-opacity:1"
             d="m 2117,1636.3652 c -23.6139,-4.5159 -42.3891,-16.8671 -51.0044,-33.5531 -1.8992,-3.6783 -3.2377,-6.8703 -2.9744,-7.0932 0.7549,-0.639 26.0356,-9.7189 27.0599,-9.7189 0.5054,0 0.9189,0.6929 0.9189,1.5398 0,2.7311 3.7158,8.9262 8.0045,13.3454 13.9143,14.3377 43.6845,16.1373 61.6899,3.7292 11.7419,-8.0917 12.314,-22.4596 1.2708,-31.9122 -5.1836,-4.437 -11.8274,-7.0427 -26.4652,-10.3797 -43.4166,-9.8977 -50.5042,-12.7041 -60.3584,-23.899 -6.1838,-7.0252 -8.4537,-13.9024 -8.5563,-25.9235 -0.079,-9.2844 0.1457,-10.4877 3.1426,-16.815 4.3567,-9.1982 11.8652,-16.4098 22.5122,-21.6217 11.7377,-5.7459 18.1488,-7.2014 34.2599,-7.7781 11.9997,-0.4295 15.2801,-0.1955 22.9596,1.6379 13.6953,3.2695 22.7534,8.0749 31.0591,16.4768 6.7506,6.829 11.5455,13.8692 10.2965,15.1183 -0.8475,0.8475 -24.0619,9.455 -25.5395,9.4697 -0.6734,0.01 -1.8725,-1.2254 -2.6647,-2.7379 -6.505,-12.4196 -28.9872,-19.4278 -47.1509,-14.698 -16.7465,4.3608 -24.3145,15.7239 -18.2755,27.4399 4.2202,8.1873 10.8804,11.0855 38.9885,16.9656 30.6497,6.4118 40.9286,10.4226 50.2686,19.6146 6.624,6.5189 10.2989,14.132 11.803,24.4517 2.9859,20.4865 -6.2136,37.4941 -25.7898,47.6787 -12.8654,6.6934 -20.5097,8.4721 -37.9549,8.8317 -8.25,0.17 -16.125,0.094 -17.5,-0.169 z"
             id="path2" />
        </g>
      </g>
      <g
         id="g18">
        <path
           style="fill:#24ff59;fill-opacity:1"
           d="m 1662.3492,1601.5509 c -2.2234,-0.9674 -3.3505,-2.2804 -3.8294,-4.4609 -1.5849,-7.216 -1.1384,-7.7809 34.4611,-43.59 21.5985,-21.7257 34.1462,-35.083 34.7571,-37 0.6119,-1.9201 0.606,-4.0799 -0.016,-6 -0.6157,-1.8997 -13.3695,-15.4696 -34.7748,-37 -36.1588,-36.3701 -36.6187,-36.964 -34.2192,-44.1963 1.5735,-4.7424 7.8212,-6.6273 13.2873,-4.0086 4.3406,2.0795 82.612,81.8772 83.3666,84.9924 1.6955,6.9988 0.8407,8.0345 -41.6113,50.4161 -22.1486,22.112 -41.5371,40.6745 -43.0854,41.25 -3.5618,1.324 -4.4676,1.2802 -8.3357,-0.4027 z"
           id="path17" />
        <path
           style="fill:#f9f9f9"
           d="m 1769.3853,1637.7921 c -4.0444,-1.3034 -5.8726,-6.4335 -4.2376,-11.8908 0.8974,-2.9952 1.774,-3.8609 4.8401,-4.7795 5.3254,-1.5955 125.7851,-1.5697 131.1181,0.028 4.5193,1.354 6.4341,5.4548 5.32,11.3936 -1.24,6.6097 0.3252,6.4689 -70.6438,6.3544 -39.3179,-0.063 -64.4616,-0.4822 -66.3968,-1.1058 z"
           id="path1" />
      </g>
    </g>
  </g>
</svg>
